<?xml version="1.0" encoding="utf-8"?>
<!-- Generator: Adobe Illustrator 25.2.1, SVG Export Plug-In . SVG Version: 6.00 Build 0)  -->
<svg version="1.1" id="Ebene_1" xmlns="http://www.w3.org/2000/svg" xmlns:xlink="http://www.w3.org/1999/xlink" x="0px" y="0px"
	 viewBox="0 0 607.8 1000" enable-background="new 0 0 607.8 1000" xml:space="preserve">
<g>
	<path fill="#E78FB3" d="M510.1,238.9L510.1,238.9c-2.4-32.6-68.3-50.8-94.7-56.8c-0.9-0.2-1.8-0.5-2.7-0.7l-0.1,0l0,0
		c-2.4-0.6-5.1-1.1-7.9-1.5l-0.1,0l0,0c-2-0.3-4.2-0.6-6.4-0.8c-6.3-0.6-13.5-1-21.4-1c-0.9,0-1.7,0-2.6,0c-1.2-0.1-2.3,0-3.4,0
		c-37.5,0.9-67.8,10.1-91.1,27.6c-24.5,18.4-39.3,46.3-44.3,83.6l-3.8,33.3c-5.9,47.7-9,72.7-9.4,74.8c-2.9,20.5-10.3,34.9-22,43
		c-11.7,8.2-29.1,12.3-52.1,12.3c-22.6,0-35.4,11.1-38.3,33.3c-1.3,11.3,1,21,6.9,29.2c5.9,8.2,14.5,12.3,25.8,12.3
		c19.3,0,33.4,3.2,42.4,9.7c9,6.5,13.5,16.9,13.5,31.1c0,4.6-0.2,8.2-0.6,10.7l-5.7,45.2c-0.8,8.4-2,17.5-3.5,27.3
		c-1.5,9.8-2.8,20.4-4.1,31.7c-0.8,5.9-1.3,14.5-1.3,25.8c0,36,9.9,63.9,29.8,83.6c19.9,19.7,50.8,29.5,92.7,29.5
		c12.2,0,22.7-0.8,31.5-2.3l0,0c2.1-0.1,27.8-5.3,27.8-5.3c32.3-6,71.1-18.2,79.7-42.9c0-0.1,0.1-0.2,0.1-0.3l0,0h0
		c0.9-2.5,1.5-5.2,1.5-8.1c0-10.1-6.4-18.6-15.1-21c-13.4-4.4-74.6,3.6-106.1,8.1c-20.2-0.8-34.7-4.1-43.2-9.8
		c-10.1-6.7-15.1-18.6-15.1-35.8c0-5,0.2-9,0.6-11.9c0.8-9.2,3.8-32.2,8.8-69.1l5.7-39c0.8-10.1,1.3-17.2,1.3-21.4
		c0-35.6-13.4-59.7-40.2-72.3c36.9-15.5,57.8-42.7,62.8-81.7l1.9-17c5.4-40.2,8.8-68.9,10.1-86.1c1.3-14.2,4.5-25.5,9.7-33.9
		c5.2-8.4,13.7-14.5,25.4-18.5c1-0.4,2.1-0.7,3.3-1c0.5-0.1,0.9-0.3,1.5-0.4c2.1-0.6,4.2-1.1,6.5-1.5c17.5-3,37.9,0.9,40.2,1.3
		c34.2,6.9,82.4,15.3,91,10.9c8.1-2.4,14.3-10.1,14.9-19.6C510.4,241.9,510.3,240.4,510.1,238.9z"/>
</g>
</svg>
